<?xml version="1.0" encoding="UTF-8"?><svg id="Layer_1" xmlns="http://www.w3.org/2000/svg" viewBox="0 0 27.23 27.23"><defs><style>.cls-1{fill:#231f20;}</style></defs><path class="cls-1" d="M7.68,26.44c.65-.53,1.37-1.18,2.15-1.97.78-.78,1.51-1.57,2.2-2.38.68-.81,1.19-1.49,1.53-2.05.34.56.84,1.24,1.53,2.05.68.81,1.42,1.6,2.2,2.38.78.78,1.51,1.44,2.17,1.97.67.53,1.14.79,1.42.79.11,0,.22-.04.31-.1.1-.07.15-.16.15-.27,0-.5-.26-1.08-.77-1.74-.52-.65-1.14-1.44-1.88-2.34-.74-.91-1.47-1.99-2.2-3.26-.73-1.27-1.28-2.77-1.67-4.5,1.73.42,3.23.98,4.5,1.69,1.27.71,2.36,1.42,3.28,2.13.92.71,1.72,1.32,2.38,1.82.67.5,1.26.75,1.76.75.33,0,.5-.18.5-.54,0-.28-.27-.74-.82-1.38-.54-.64-1.22-1.35-2.03-2.13-.81-.78-1.62-1.51-2.43-2.2-.81-.68-1.48-1.19-2.01-1.53.53-.33,1.2-.84,2.01-1.53.81-.68,1.62-1.41,2.43-2.2.81-.78,1.49-1.49,2.03-2.13.54-.64.82-1.1.82-1.38,0-.36-.17-.54-.5-.54-.5,0-1.09.25-1.76.75-.67.5-1.46,1.11-2.38,1.82-.92.71-2.01,1.42-3.28,2.11-1.27.7-2.77,1.26-4.5,1.67.39-1.73.95-3.22,1.67-4.48.73-1.25,1.46-2.34,2.2-3.26.74-.92,1.37-1.71,1.88-2.36s.77-1.23.77-1.74c0-.11-.05-.2-.15-.27-.1-.07-.2-.11-.31-.11-.28,0-.75.27-1.42.79-.67.53-1.39,1.19-2.17,1.97s-1.51,1.58-2.2,2.38c-.68.81-1.19,1.49-1.53,2.05-.34-.56-.84-1.24-1.53-2.05-.68-.81-1.42-1.6-2.2-2.38-.78-.78-1.5-1.44-2.15-1.97-.66-.53-1.14-.79-1.44-.79s-.46.13-.46.38c0,.5.26,1.08.77,1.74.51.65,1.14,1.44,1.88,2.36.74.92,1.46,2.01,2.17,3.26.71,1.25,1.26,2.75,1.65,4.48-1.7-.42-3.19-.98-4.48-1.67-1.28-.7-2.38-1.4-3.3-2.11s-1.71-1.32-2.38-1.82-1.26-.75-1.76-.75c-.22,0-.33.18-.33.54,0,.28.26.74.79,1.38.53.64,1.18,1.35,1.97,2.13.78.78,1.57,1.51,2.36,2.2.79.68,1.46,1.19,1.99,1.53-.53.34-1.19.84-1.99,1.53-.79.68-1.58,1.42-2.36,2.2-.78.78-1.44,1.49-1.97,2.13-.53.64-.79,1.1-.79,1.38,0,.36.11.54.33.54.5,0,1.09-.25,1.76-.75s1.46-1.11,2.38-1.82,2.02-1.42,3.3-2.13c1.28-.71,2.77-1.28,4.48-1.69-.39,1.73-.94,3.23-1.65,4.5-.71,1.27-1.44,2.36-2.17,3.26-.74.91-1.37,1.69-1.88,2.34-.52.66-.77,1.23-.77,1.74,0,.25.15.38.46.38s.79-.26,1.44-.79"/></svg>