<?xml version="1.0" encoding="UTF-8"?><svg id="Layer_1" xmlns="http://www.w3.org/2000/svg" viewBox="0 0 27.15 27.23"><defs><style>.cls-1{fill:#231f20;}</style></defs><path class="cls-1" d="M12.58,20.63c-.57-.46-1.23-1.06-1.97-1.77-.74-.72-1.48-1.44-2.19-2.17-.72-.73-1.32-1.37-1.79-1.91-.48-.55-.72-.88-.72-1.02,0-.16.24-.53.72-1.12.48-.58,1.08-1.26,1.79-2.01.72-.76,1.45-1.5,2.19-2.23.74-.73,1.4-1.34,1.95-1.82.56-.48.9-.72,1.04-.72s.48.23,1.04.68c.56.45,1.21,1.03,1.95,1.73.74.7,1.48,1.43,2.19,2.17.72.74,1.32,1.41,1.8,1.99.48.58.72.98.72,1.2s-.23.61-.68,1.2c-.45.59-1.02,1.24-1.69,1.97-.68.73-1.38,1.44-2.11,2.13-.73.69-1.38,1.26-1.95,1.71-.57.45-.96.68-1.18.68-.16,0-.53-.23-1.1-.7M14.33,26.51c.36-.48.8-1.11,1.34-1.89.53-.78,1.15-1.63,1.85-2.53.7-.9,1.47-1.78,2.29-2.63,1.09-1.06,2.2-1.97,3.33-2.73,1.13-.76,2.08-1.39,2.85-1.89.77-.5,1.16-.9,1.16-1.2,0-.32-.39-.72-1.16-1.22-.77-.49-1.72-1.12-2.85-1.87-1.13-.76-2.24-1.67-3.33-2.73-.82-.85-1.59-1.73-2.29-2.63-.7-.9-1.32-1.75-1.85-2.53-.53-.78-.98-1.42-1.34-1.91s-.61-.74-.74-.74c-.19,0-.44.23-.76.68s-.72,1.05-1.2,1.79c-.48.74-1.04,1.54-1.69,2.39-.65.85-1.38,1.67-2.17,2.47-.82.85-1.69,1.64-2.61,2.37-.92.73-1.76,1.38-2.53,1.93-.77.56-1.4,1.02-1.89,1.38-.49.36-.74.59-.74.7,0,.13.25.37.74.72.49.35,1.12.78,1.89,1.31.77.53,1.61,1.15,2.53,1.85.92.71,1.79,1.48,2.61,2.33,1.09,1.06,2.02,2.16,2.79,3.29s1.41,2.08,1.91,2.85c.51.77.88,1.16,1.12,1.16.13,0,.38-.24.74-.72"/></svg>