<?xml version="1.0" encoding="UTF-8"?><svg id="Layer_1" xmlns="http://www.w3.org/2000/svg" viewBox="0 0 47.68 27.23"><defs><style>.cls-1{fill:#231f20;}</style></defs><path class="cls-1" d="M17.72,26.44c.47-.53.98-1.22,1.51-2.05.53-.84,1.07-1.74,1.61-2.7.54-.96,1.07-1.9,1.59-2.81.52-.91.98-1.67,1.4-2.28.42.62.89,1.38,1.4,2.28.52.91,1.05,1.84,1.59,2.81.54.96,1.08,1.86,1.61,2.7.53.84,1.03,1.52,1.51,2.05.47.53.88.8,1.21.8.22,0,.4-.13.54-.4.14-.26.21-.51.21-.73,0-.53-.2-1.25-.59-2.16-.39-.91-.87-1.88-1.44-2.93-.57-1.05-1.15-2.09-1.74-3.12-.59-1.03-1.07-1.94-1.47-2.72,1.28,0,2.35.01,3.2.04.85.03,1.59.12,2.22.27.63.15,1.24.4,1.84.73.6.33,1.3.81,2.09,1.42.8.62,1.78,1.41,2.95,2.39,1.34,1.12,2.56,2.19,3.64,3.23,1.09,1.03,2.02,1.88,2.79,2.54.77.66,1.32.98,1.65.98.14,0,.27-.06.4-.19.13-.13.19-.31.19-.57,0-.31-.27-.85-.82-1.63-.54-.78-1.26-1.68-2.14-2.7-.88-1.02-1.81-2.05-2.79-3.1-.98-1.05-1.91-2.01-2.79-2.89-.88-.88-1.6-1.57-2.16-2.07.56-.5,1.28-1.19,2.16-2.07.88-.88,1.81-1.84,2.79-2.89.98-1.05,1.91-2.08,2.79-3.1.88-1.02,1.59-1.92,2.14-2.7.54-.78.82-1.33.82-1.63,0-.25-.06-.44-.19-.57-.13-.13-.25-.19-.36-.19-.36,0-.93.33-1.7.99-.77.66-1.7,1.5-2.79,2.53-1.09,1.03-2.3,2.11-3.64,3.23-1.17.98-2.15,1.77-2.93,2.39-.78.61-1.48,1.09-2.09,1.42-.61.33-1.24.58-1.86.73-.63.15-1.37.25-2.22.27-.85.03-1.92.04-3.2.04.39-.78.88-1.69,1.47-2.72.59-1.03,1.17-2.07,1.74-3.12.57-1.05,1.05-2.03,1.44-2.93.39-.91.59-1.63.59-2.16,0-.22-.07-.47-.21-.73-.14-.26-.32-.4-.54-.4-.33,0-.74.26-1.21.78-.47.52-.98,1.18-1.51,1.99-.53.81-1.07,1.69-1.61,2.64-.54.95-1.08,1.86-1.59,2.74-.52.88-.99,1.64-1.4,2.28-.42-.64-.89-1.4-1.4-2.28-.52-.88-1.05-1.79-1.59-2.74-.55-.95-1.08-1.83-1.61-2.64-.53-.81-1.03-1.47-1.51-1.99-.47-.52-.88-.78-1.21-.78-.2,0-.37.13-.52.4-.15.27-.23.51-.23.73,0,.53.19,1.25.59,2.16.39.91.87,1.89,1.44,2.93.57,1.05,1.15,2.09,1.74,3.12.59,1.03,1.07,1.94,1.47,2.72-1.28,0-2.35-.01-3.2-.04-.85-.03-1.59-.12-2.22-.27-.63-.15-1.24-.4-1.84-.73-.6-.33-1.3-.81-2.09-1.42-.8-.61-1.78-1.41-2.95-2.39-1.34-1.12-2.55-2.19-3.64-3.23-1.09-1.03-2.02-1.88-2.79-2.53C1.47.79.91.46.54.46c-.11,0-.23.06-.36.19-.13.12-.19.31-.19.57,0,.31.27.85.82,1.63.54.78,1.26,1.68,2.14,2.7.88,1.02,1.81,2.05,2.79,3.1.98,1.05,1.91,2.01,2.78,2.89.88.88,1.6,1.57,2.16,2.07-.56.5-1.28,1.19-2.16,2.07-.88.88-1.81,1.84-2.78,2.89-.98,1.05-1.91,2.08-2.79,3.1-.88,1.02-1.59,1.92-2.14,2.7-.54.78-.82,1.33-.82,1.63,0,.25.07.44.21.57.14.12.26.19.38.19.36,0,.92-.33,1.68-.98.75-.66,1.68-1.5,2.76-2.54,1.09-1.03,2.3-2.11,3.64-3.23,1.17-.98,2.16-1.77,2.95-2.39.8-.61,1.49-1.09,2.09-1.42.6-.33,1.21-.58,1.84-.73.63-.15,1.37-.24,2.22-.27.85-.03,1.92-.04,3.2-.04-.39.78-.88,1.69-1.47,2.72-.59,1.03-1.17,2.07-1.74,3.12-.57,1.05-1.06,2.02-1.44,2.93-.39.91-.59,1.63-.59,2.16,0,.22.08.47.23.73.15.27.33.4.52.4.33,0,.74-.27,1.21-.8"/></svg>