<?xml version="1.0" encoding="UTF-8"?><svg id="Layer_1" xmlns="http://www.w3.org/2000/svg" viewBox="0 0 45.3 27.23"><defs><style>.cls-1{fill:#231f20;}</style></defs><path class="cls-1" d="M22.4,3.67c.05-.19.14-.29.25-.29s.19.1.25.29l4.58,8.42h-9.65l4.58-8.42ZM17.82,15.14h9.65l-4.58,8.42c-.06.19-.14.29-.25.29s-.19-.1-.25-.29l-4.58-8.42ZM24.22,26.3c.58-.62,1.18-1.41,1.8-2.37.62-.96,1.21-1.95,1.77-2.97.56-1.02,1.07-1.93,1.51-2.74.44-.81.77-1.37.99-1.67.41.61.87,1.35,1.38,2.23.51.88,1.03,1.79,1.57,2.72.54.94,1.07,1.81,1.59,2.62.52.81,1.02,1.47,1.49,1.98.47.51.87.76,1.2.76.22,0,.4-.13.54-.39.14-.26.21-.5.21-.72,0-.52-.19-1.22-.58-2.08-.39-.87-.86-1.82-1.42-2.85-.56-1.03-1.14-2.04-1.71-3.03-.58-.99-1.06-1.87-1.44-2.64,2.48,0,4.51-.01,6.11-.04,1.6-.03,2.84-.1,3.73-.21.89-.11,1.51-.27,1.86-.47.34-.21.52-.47.52-.8,0-.3-.17-.55-.52-.74-.34-.19-.96-.34-1.86-.45-.89-.11-2.14-.19-3.73-.25-1.6-.05-3.63-.08-6.11-.08.38-.77.87-1.65,1.44-2.64.58-.99,1.15-2,1.71-3.03.56-1.03,1.04-1.98,1.42-2.85.38-.87.58-1.56.58-2.08,0-.22-.07-.46-.21-.72-.14-.26-.32-.39-.54-.39-.33,0-.73.25-1.2.74-.47.49-.96,1.13-1.49,1.92-.52.78-1.05,1.64-1.59,2.56-.54.92-1.06,1.82-1.57,2.68-.51.87-.97,1.6-1.38,2.21-.41-.63-.87-1.39-1.38-2.27-.51-.88-1.04-1.8-1.59-2.74-.55-.95-1.11-1.84-1.67-2.66s-1.1-1.5-1.61-2.02c-.51-.52-.97-.78-1.38-.78-.44,0-.96.31-1.55.93-.59.62-1.2,1.4-1.84,2.35-.63.95-1.24,1.92-1.82,2.93-.58,1.01-1.08,1.9-1.51,2.68-.43.78-.74,1.31-.93,1.59-.41-.63-.87-1.38-1.38-2.23-.51-.85-1.03-1.74-1.57-2.66-.54-.92-1.07-1.77-1.59-2.56-.52-.78-1.02-1.42-1.48-1.92-.47-.49-.87-.74-1.2-.74-.19,0-.37.13-.52.39-.15.26-.23.5-.23.72,0,.52.19,1.22.58,2.08.39.87.86,1.81,1.42,2.85.56,1.03,1.13,2.04,1.71,3.03.58.99,1.06,1.87,1.44,2.64-2.48,0-4.51.03-6.11.08-1.6.05-2.84.14-3.73.25-.89.11-1.51.26-1.86.45-.34.19-.52.44-.52.74,0,.33.17.6.52.8.34.21.96.36,1.86.47.89.11,2.14.18,3.73.21,1.59.03,3.63.04,6.11.04-.39.77-.87,1.65-1.44,2.64-.58.99-1.15,2-1.71,3.03-.56,1.03-1.04,1.98-1.42,2.85-.39.87-.58,1.56-.58,2.08,0,.22.08.46.23.72.15.26.32.39.52.39.33,0,.73-.25,1.2-.76.47-.51.96-1.17,1.48-1.98.52-.81,1.05-1.68,1.59-2.62.54-.93,1.06-1.84,1.57-2.72.51-.88.97-1.62,1.38-2.23.41.61.88,1.36,1.4,2.27.52.91,1.06,1.85,1.61,2.83.55.98,1.1,1.88,1.65,2.72.55.84,1.08,1.53,1.59,2.06.51.54.97.8,1.38.8.47,0,.99-.31,1.57-.93"/></svg>