<?xml version="1.0" encoding="UTF-8"?><svg id="Layer_1" xmlns="http://www.w3.org/2000/svg" viewBox="0 0 50.27 27.23"><defs><style>.cls-1{fill:#231f20;}</style></defs><path class="cls-1" d="M9.13,26.43c.47-.53.98-1.21,1.51-2.05.53-.84,1.07-1.74,1.61-2.7.54-.96,1.08-1.9,1.59-2.81.52-.91.98-1.67,1.4-2.28.42.61.89,1.38,1.4,2.28.52.91,1.05,1.84,1.59,2.81.54.96,1.08,1.86,1.61,2.7.53.84,1.03,1.52,1.51,2.05.47.53.88.8,1.22.8.22,0,.4-.13.54-.4.14-.27.21-.51.21-.73,0-.53-.2-1.25-.59-2.16-.39-.91-.87-1.88-1.45-2.93-.57-1.05-1.15-2.09-1.74-3.12-.59-1.03-1.08-1.94-1.47-2.72,2.51,0,4.58-.01,6.2-.04,1.62-.03,2.88-.1,3.79-.21.91-.11,1.54-.27,1.89-.48.35-.21.52-.48.52-.82,0-.31-.17-.56-.52-.75-.35-.2-.98-.35-1.89-.46-.91-.11-2.17-.2-3.79-.25-1.62-.06-3.69-.08-6.2-.08.39-.78.88-1.69,1.47-2.72.59-1.03,1.17-2.07,1.74-3.12.57-1.05,1.05-2.03,1.45-2.93.39-.91.59-1.63.59-2.16,0-.22-.07-.47-.21-.73-.14-.26-.32-.4-.54-.4-.34,0-.74.26-1.22.77-.47.52-.98,1.18-1.51,1.99-.53.81-1.07,1.69-1.61,2.64-.55.95-1.08,1.86-1.59,2.74-.52.88-.98,1.64-1.4,2.28-.42-.64-.89-1.4-1.4-2.28-.52-.88-1.05-1.79-1.59-2.74-.54-.95-1.08-1.83-1.61-2.64-.53-.81-1.03-1.47-1.51-1.99-.48-.52-.88-.77-1.22-.77-.2,0-.37.13-.52.4-.15.27-.23.51-.23.73,0,.53.19,1.25.59,2.16.39.91.87,1.89,1.45,2.93.57,1.05,1.15,2.09,1.74,3.12.59,1.03,1.08,1.94,1.47,2.72-2.51,0-4.58.03-6.2.08-1.62.06-2.88.14-3.79.25-.91.11-1.54.27-1.89.46-.35.2-.52.45-.52.75,0,.33.17.61.52.82.35.21.98.37,1.89.48.91.11,2.17.18,3.79.21,1.62.03,3.69.04,6.2.04-.39.78-.88,1.69-1.47,2.72-.59,1.03-1.17,2.07-1.74,3.12-.57,1.05-1.05,2.03-1.45,2.93-.39.91-.59,1.63-.59,2.16,0,.22.08.47.23.73.15.27.33.4.52.4.34,0,.74-.27,1.22-.8M45.5,15.08v-2.93h-24.13c-.42,0-.76.15-1.03.44-.27.29-.46.62-.59.98-.13.36-.19.66-.19.88,0,.2.17.35.5.46.34.11.66.17.96.17h24.46ZM33.85,26.2c.78-.68,1.76-1.56,2.93-2.64,1.17-1.08,2.46-2.18,3.85-3.33,1.12-.92,2.24-1.75,3.37-2.49,1.13-.74,2.17-1.38,3.12-1.93.95-.55,1.71-1,2.28-1.36.57-.36.86-.64.86-.84s-.29-.47-.86-.84c-.57-.36-1.33-.82-2.28-1.36-.95-.54-1.99-1.19-3.12-1.93-1.13-.74-2.26-1.57-3.37-2.49-1.4-1.17-2.68-2.29-3.85-3.35-1.17-1.06-2.16-1.93-2.95-2.62-.8-.68-1.33-1.03-1.61-1.03-.11,0-.23.07-.36.21-.13.14-.19.34-.19.59,0,.34.3.9.9,1.7.6.8,1.37,1.72,2.3,2.76.94,1.05,1.93,2.12,3,3.21,1.06,1.09,2.06,2.1,3,3.02.94.92,1.7,1.63,2.28,2.14-.59.5-1.35,1.21-2.28,2.14-.94.92-1.93,1.93-3,3.02-1.06,1.09-2.06,2.16-3,3.2-.94,1.05-1.7,1.97-2.3,2.77s-.9,1.36-.9,1.7c0,.25.07.45.21.59.14.14.27.21.38.21.28,0,.81-.34,1.59-1.03"/></svg>