<?xml version="1.0" encoding="UTF-8"?><svg id="Layer_1" xmlns="http://www.w3.org/2000/svg" viewBox="0 0 74.13 27.23"><defs><style>.cls-1{fill:#231f20;}</style></defs><path class="cls-1" d="M37.53,15.08v-2.93H14.43c-.4,0-.73.15-.98.44-.26.29-.44.62-.56.98-.12.36-.18.66-.18.88,0,.2.16.35.48.46.32.11.63.17.92.17h23.41ZM26.38,26.2c.75-.68,1.68-1.56,2.81-2.64,1.12-1.07,2.35-2.18,3.69-3.33,1.07-.92,2.15-1.75,3.23-2.49,1.08-.74,2.08-1.38,2.99-1.93.91-.54,1.64-1,2.18-1.36.55-.36.82-.64.82-.84s-.27-.47-.82-.84c-.55-.36-1.28-.82-2.18-1.36-.91-.54-1.9-1.19-2.99-1.93-1.08-.74-2.16-1.57-3.23-2.49-1.34-1.17-2.57-2.29-3.69-3.35-1.12-1.06-2.07-1.93-2.83-2.62-.76-.68-1.28-1.03-1.54-1.03-.11,0-.22.07-.34.21-.12.14-.18.34-.18.59,0,.33.29.9.86,1.7.57.8,1.31,1.72,2.2,2.76.9,1.05,1.85,2.12,2.87,3.21,1.02,1.09,1.97,2.1,2.87,3.02.9.92,1.62,1.63,2.18,2.14-.56.5-1.29,1.21-2.18,2.14-.9.92-1.85,1.93-2.87,3.02-1.02,1.09-1.97,2.16-2.87,3.21-.9,1.05-1.63,1.97-2.2,2.76-.58.8-.86,1.36-.86,1.7,0,.25.07.45.2.59.13.14.25.21.36.21.27,0,.77-.34,1.52-1.03M24.82,15.08v-2.93H1.72c-.4,0-.73.15-.98.44-.25.29-.44.62-.56.98-.12.36-.18.66-.18.88,0,.2.16.35.48.46.32.11.63.17.92.17h23.41ZM13.67,26.2c.75-.68,1.68-1.56,2.81-2.64,1.12-1.07,2.35-2.18,3.69-3.33,1.07-.92,2.14-1.75,3.23-2.49,1.08-.74,2.08-1.38,2.99-1.93.91-.54,1.64-1,2.18-1.36.55-.36.82-.64.82-.84s-.27-.47-.82-.84c-.55-.36-1.28-.82-2.18-1.36-.91-.54-1.9-1.19-2.99-1.93-1.08-.74-2.16-1.57-3.23-2.49-1.34-1.17-2.57-2.29-3.69-3.35-1.12-1.06-2.07-1.93-2.83-2.62-.76-.68-1.28-1.03-1.54-1.03-.11,0-.22.07-.34.21-.12.14-.18.34-.18.59,0,.33.29.9.86,1.7.58.8,1.31,1.72,2.21,2.76.9,1.05,1.85,2.12,2.87,3.21,1.02,1.09,1.97,2.1,2.87,3.02.89.92,1.62,1.63,2.18,2.14-.56.5-1.29,1.21-2.18,2.14-.9.92-1.85,1.93-2.87,3.02-1.02,1.09-1.97,2.16-2.87,3.21-.89,1.05-1.63,1.97-2.21,2.76-.57.8-.86,1.36-.86,1.7,0,.25.07.45.2.59.13.14.25.21.36.21.27,0,.77-.34,1.52-1.03M72.41,15.08c.4,0,.73-.15.98-.44.25-.29.44-.63.56-1.01s.18-.66.18-.86c0-.22-.16-.38-.48-.48-.32-.1-.63-.15-.92-.15h-23.41v2.93h23.09ZM62.36,27.02c.12-.14.18-.33.18-.59,0-.33-.29-.9-.86-1.7-.57-.8-1.31-1.72-2.2-2.76-.9-1.05-1.85-2.12-2.87-3.21-1.02-1.09-1.97-2.1-2.87-3.02-.9-.92-1.62-1.63-2.18-2.14.56-.5,1.29-1.22,2.18-2.14.89-.92,1.85-1.93,2.87-3.02,1.01-1.09,1.97-2.16,2.87-3.21.9-1.05,1.63-1.97,2.2-2.76.58-.8.86-1.36.86-1.7,0-.25-.06-.45-.18-.59-.12-.14-.23-.21-.34-.21-.27,0-.78.34-1.54,1.03-.76.69-1.7,1.56-2.83,2.62-1.12,1.06-2.35,2.18-3.69,3.35-1.07.92-2.15,1.75-3.23,2.49-1.08.74-2.08,1.38-2.99,1.93-.91.54-1.64,1-2.18,1.36-.55.36-.82.64-.82.84s.27.47.82.84c.55.36,1.28.82,2.18,1.36.91.54,1.91,1.19,2.99,1.93,1.08.74,2.16,1.57,3.23,2.49,1.34,1.15,2.56,2.26,3.69,3.33,1.12,1.08,2.07,1.96,2.83,2.64.76.68,1.26,1.03,1.5,1.03.13,0,.26-.07.38-.21"/></svg>