<?xml version="1.0" encoding="UTF-8"?><svg id="Layer_1" xmlns="http://www.w3.org/2000/svg" viewBox="0 0 30.5 27.23"><defs><style>.cls-1{fill:#231f20;}</style></defs><path class="cls-1" d="M9.13,26.43c.47-.53.98-1.21,1.51-2.05.53-.84,1.07-1.74,1.61-2.7.55-.96,1.08-1.9,1.59-2.81.52-.91.98-1.67,1.4-2.28.42.61.89,1.38,1.4,2.28.52.91,1.05,1.84,1.59,2.81.54.96,1.08,1.86,1.61,2.7.53.84,1.03,1.52,1.51,2.05.47.53.88.8,1.22.8.22,0,.4-.13.54-.4.14-.27.21-.51.21-.73,0-.53-.2-1.25-.59-2.16-.39-.91-.87-1.88-1.44-2.93-.57-1.05-1.15-2.09-1.74-3.12-.59-1.03-1.08-1.94-1.47-2.72,2.51,0,4.58-.01,6.2-.04,1.62-.03,2.88-.1,3.79-.21.91-.11,1.53-.27,1.88-.48.35-.21.52-.48.52-.82,0-.31-.18-.56-.52-.75-.35-.2-.98-.35-1.88-.46-.91-.11-2.17-.2-3.79-.25-1.62-.05-3.69-.08-6.2-.08.39-.78.88-1.69,1.47-2.72.59-1.03,1.17-2.07,1.74-3.12.57-1.05,1.05-2.02,1.44-2.93.39-.91.59-1.63.59-2.16,0-.22-.07-.47-.21-.73-.14-.27-.32-.4-.54-.4-.34,0-.74.26-1.22.77-.47.52-.98,1.18-1.51,1.99-.53.81-1.07,1.69-1.61,2.64-.54.95-1.08,1.86-1.59,2.74-.52.88-.99,1.64-1.4,2.28-.42-.64-.89-1.4-1.4-2.28-.52-.88-1.05-1.79-1.59-2.74-.54-.95-1.08-1.83-1.61-2.64-.53-.81-1.03-1.47-1.51-1.99-.47-.52-.88-.77-1.22-.77-.2,0-.37.13-.52.4-.15.27-.23.51-.23.73,0,.53.2,1.25.59,2.16.39.91.87,1.89,1.44,2.93.57,1.05,1.15,2.09,1.74,3.12.59,1.03,1.08,1.94,1.47,2.72-2.51,0-4.58.03-6.2.08-1.62.06-2.88.14-3.79.25-.91.11-1.54.27-1.89.46-.35.2-.52.45-.52.75,0,.33.17.61.52.82.35.21.98.37,1.89.48.91.11,2.17.18,3.79.21,1.62.03,3.69.04,6.2.04-.39.78-.88,1.69-1.47,2.72-.59,1.03-1.17,2.07-1.74,3.12-.57,1.05-1.06,2.02-1.44,2.93-.39.91-.59,1.63-.59,2.16,0,.22.08.47.23.73.15.27.33.4.52.4.33,0,.74-.26,1.22-.8"/></svg>