<?xml version="1.0" encoding="UTF-8"?><svg id="Layer_1" xmlns="http://www.w3.org/2000/svg" viewBox="0 0 38.42 27.23"><defs><style>.cls-1{fill:#231f20;}</style></defs><path class="cls-1" d="M21.99,26.2c.78-.68,1.76-1.56,2.93-2.64,1.17-1.08,2.46-2.18,3.85-3.33,1.12-.92,2.24-1.75,3.37-2.49s2.17-1.38,3.12-1.93c.95-.54,1.71-1,2.28-1.36.57-.36.86-.64.86-.84s-.29-.47-.86-.84c-.57-.36-1.33-.82-2.28-1.36-.95-.54-1.99-1.19-3.12-1.93s-2.26-1.57-3.37-2.49c-1.4-1.17-2.68-2.29-3.85-3.35-1.17-1.06-2.16-1.93-2.95-2.62-.8-.68-1.33-1.03-1.61-1.03-.11,0-.23.07-.36.21-.13.14-.19.34-.19.59,0,.34.3.9.9,1.7.6.8,1.37,1.72,2.3,2.76.94,1.05,1.93,2.11,3,3.2,1.06,1.09,2.06,2.09,2.99,3.02.93.92,1.7,1.63,2.28,2.14-.59.5-1.35,1.22-2.28,2.14-.94.92-1.93,1.93-2.99,3.02-1.06,1.09-2.06,2.16-3,3.21-.94,1.05-1.7,1.97-2.3,2.77-.6.8-.9,1.36-.9,1.7,0,.25.07.45.21.59.14.14.27.21.38.21.28,0,.81-.34,1.59-1.03M22.08,15.29c.42,0,.76-.18,1.03-.54.27-.36.46-.77.59-1.22.13-.45.19-.77.19-.96,0-.22-.17-.38-.5-.48-.34-.1-.66-.15-.96-.15h-7.12c-.42,0-.76.17-1.03.5-.27.34-.46.72-.59,1.15-.13.43-.19.79-.19,1.07,0,.2.17.35.5.46.34.11.66.17.96.17h7.12ZM8.59,15.29c.42,0,.76-.18,1.03-.54.27-.36.46-.77.59-1.22.13-.45.19-.77.19-.96,0-.22-.17-.38-.5-.48-.34-.1-.66-.15-.96-.15H1.8c-.42,0-.76.17-1.03.5-.27.34-.46.72-.59,1.15-.12.43-.19.79-.19,1.07,0,.2.17.35.5.46.33.11.66.17.96.17h7.12Z"/></svg>